# xmcd
#
# Track frame offsets:
#	150
#	24165
#	46935
#	69617
#	88970
#	111315
#	130642
#	145147
#	162767
#	189365
#	201450
#	225002
#	246452
#
# Disc length: 3601 seconds
#
# Revision: 1
# Processed by: cddbd v1.4PL0 Copyright (c) Steve Scherf et al.
# Submitted via: audiograbber 1.82.02
#
DISCID=ac0e0f0d
DTITLE=Patrick Allen - ...'bout time
DYEAR=2003
DGENRE=
TTITLE0=Save it for Some Other Fool
TTITLE1=Sweet, Sweet Sin
TTITLE2=Only When We're Alone
TTITLE3=Kind-Hearted, Good Lovin' Woman
TTITLE4=Let's Get Twisted Up Together
TTITLE5=You Lit a Fire in Me
TTITLE6='Bout Time!
TTITLE7=Not as Long as I Have This Heart
TTITLE8=He's Not Me
TTITLE9=Never Too Much of You
TTITLE10=Fightin' Time, Chasin' Dreams
TTITLE11=Heartache Waitin' to Happen
TTITLE12=The Answer is Always in You
EXTD=2003 Patrick Allen/Obstinate Music (ASCAP)
EXTT0=
EXTT1=
EXTT2=
EXTT3=
EXTT4=
EXTT5=
EXTT6=
EXTT7=
EXTT8=
EXTT9=
EXTT10=
EXTT11=
EXTT12=
PLAYORDER=
